<?xml version="1.0" encoding="UTF-8"?>
<svg xmlns="http://www.w3.org/2000/svg" viewBox="0 0 526.26 405.97">
  <defs>
    <style>
      .cls-1 {
        fill: #42a459;
      }

      .cls-2 {
        fill: #190704;
      }

      .cls-3 {
        fill: #3d1e19;
      }

      .cls-4 {
        fill: #8c5b3e;
      }

      .cls-5 {
        fill: #fcf7be;
      }

      .cls-6 {
        fill: #33272a;
      }

      .cls-7 {
        fill: #13411e;
      }

      .cls-8 {
        fill: #3d6f43;
      }

      .cls-9 {
        fill: #ff786a;
      }

      .cls-10 {
        fill: #27412d;
      }

      .cls-11 {
        fill: #b00000;
      }

      .cls-12 {
        fill: #85190e;
      }

      .cls-13 {
        fill: #174120;
      }

      .cls-14 {
        fill: #77492e;
      }

      .cls-15 {
        fill: #4f342f;
      }

      .cls-16 {
        fill: #f6d896;
      }

      .cls-17 {
        fill: #612721;
      }
    </style>
  </defs>
  <g id="Layer_1" data-name="Layer 1" shape-rendering="crispEdges">
    <rect class="cls-6" x="225.54" width="90.22" height="15.04"/>
    <rect class="cls-6" x="210.5" y="15.04" width="15.04" height="15.04"/>
    <rect class="cls-5" x="225.54" y="15.04" width="15.04" height="15.04"/>
    <rect class="cls-16" x="240.58" y="15.04" width="30.07" height="225.54"/>
    <rect class="cls-5" x="270.65" y="15.04" width="45.11" height="15.04"/>
    <rect class="cls-6" x="315.76" y="15.04" width="45.11" height="15.04"/>
    <rect class="cls-6" x="195.47" y="30.07" width="15.04" height="30.07"/>
    <rect class="cls-16" x="210.5" y="30.07" width="30.07" height="150.36"/>
    <rect class="cls-16" x="270.65" y="30.07" width="75.18" height="150.36"/>
    <rect class="cls-5" x="345.83" y="30.07" width="15.04" height="15.04"/>
    <rect class="cls-6" x="360.86" y="30.07" width="45.11" height="15.04"/>
    <rect class="cls-6" x="180.43" y="45.11" width="15.04" height="15.04"/>
    <rect class="cls-16" x="345.83" y="45.11" width="60.14" height="120.29"/>
    <rect class="cls-6" x="405.97" y="45.11" width="30.07" height="15.04"/>
    <rect class="cls-6" x="150.36" y="60.14" width="30.07" height="15.04"/>
    <rect class="cls-5" x="180.43" y="60.14" width="15.04" height="15.04"/>
    <rect class="cls-16" x="195.47" y="60.14" width="15.04" height="150.36"/>
    <rect class="cls-16" x="405.97" y="60.14" width="30.07" height="45.11"/>
    <rect class="cls-6" x="436.04" y="60.14" width="30.07" height="15.04"/>
    <rect class="cls-6" x="120.29" y="75.18" width="30.07" height="15.04"/>
    <rect class="cls-5" x="150.36" y="75.18" width="15.04" height="15.04"/>
    <rect class="cls-16" x="165.4" y="75.18" width="30.07" height="120.29"/>
    <rect class="cls-16" x="436.04" y="75.18" width="30.07" height="15.04"/>
    <rect class="cls-6" x="466.12" y="75.18" width="15.04" height="15.04"/>
    <rect class="cls-6" x="90.22" y="90.22" width="30.07" height="15.04"/>
    <rect class="cls-5" x="120.29" y="90.22" width="30.07" height="15.04"/>
    <rect class="cls-16" x="150.36" y="90.22" width="15.04" height="105.25"/>
    <rect class="cls-16" x="436.04" y="90.22" width="15.04" height="60.14"/>
    <rect class="cls-5" x="451.08" y="90.22" width="30.07" height="15.04"/>
    <rect class="cls-6" x="481.15" y="90.22" width="15.04" height="15.04"/>
    <rect class="cls-6" x="60.14" y="105.25" width="30.07" height="15.04"/>
    <rect class="cls-5" x="90.22" y="105.25" width="30.07" height="15.04"/>
    <rect class="cls-16" x="120.29" y="105.25" width="30.07" height="75.18"/>
    <rect class="cls-5" x="405.97" y="105.25" width="15.04" height="15.04"/>
    <rect class="cls-16" x="421.01" y="105.25" width="15.04" height="45.11"/>
    <rect class="cls-5" x="451.08" y="105.25" width="15.04" height="30.07"/>
    <rect class="cls-16" x="466.12" y="105.25" width="30.07" height="30.07"/>
    <rect class="cls-6" x="496.19" y="105.25" width="15.04" height="60.14"/>
    <rect class="cls-6" x="45.11" y="120.29" width="15.04" height="15.04"/>
    <rect class="cls-5" x="60.14" y="120.29" width="15.04" height="15.04"/>
    <rect class="cls-16" x="75.18" y="120.29" width="45.11" height="30.07"/>
    <rect class="cls-16" x="405.97" y="120.29" width="15.04" height="30.07"/>
    <rect class="cls-6" x="30.07" y="135.32" width="15.04" height="45.11"/>
    <rect class="cls-4" x="45.11" y="135.32" width="15.04" height="60.14"/>
    <rect class="cls-16" x="60.14" y="135.32" width="15.04" height="15.04"/>
    <rect class="cls-16" x="451.08" y="135.32" width="30.07" height="15.04"/>
    <rect class="cls-3" x="481.15" y="135.32" width="15.04" height="45.11"/>
    <rect class="cls-4" x="60.14" y="150.36" width="30.07" height="60.14"/>
    <rect class="cls-16" x="90.22" y="150.36" width="30.07" height="15.04"/>
    <rect class="cls-5" x="405.97" y="150.36" width="60.14" height="15.04"/>
    <rect class="cls-3" x="466.12" y="150.36" width="15.04" height="45.11"/>
    <rect class="cls-4" x="90.22" y="165.4" width="30.07" height="60.14"/>
    <rect class="cls-16" x="345.83" y="165.4" width="15.04" height="30.07"/>
    <rect class="cls-5" x="360.86" y="165.4" width="15.04" height="15.04"/>
    <rect class="cls-16" x="375.9" y="165.4" width="15.04" height="15.04"/>
    <rect class="cls-3" x="390.94" y="165.4" width="30.07" height="60.14"/>
    <rect class="cls-4" x="421.01" y="165.4" width="15.04" height="15.04"/>
    <rect class="cls-3" x="436.04" y="165.4" width="15.04" height="15.04"/>
    <rect class="cls-4" x="451.08" y="165.4" width="15.04" height="15.04"/>
    <rect class="cls-1" x="496.19" y="165.4" width="15.04" height="30.07"/>
    <rect class="cls-6" x="511.22" y="165.4" width="15.04" height="30.07"/>
    <rect class="cls-6" x="15.04" y="180.43" width="15.04" height="15.04"/>
    <rect class="cls-1" x="30.07" y="180.43" width="15.04" height="30.07"/>
    <rect class="cls-4" x="120.29" y="180.43" width="30.07" height="60.14"/>
    <rect class="cls-5" x="210.5" y="180.43" width="15.04" height="15.04"/>
    <rect class="cls-16" x="225.54" y="180.43" width="15.04" height="45.11"/>
    <rect class="cls-16" x="270.65" y="180.43" width="60.14" height="15.04"/>
    <rect class="cls-5" x="330.79" y="180.43" width="15.04" height="15.04"/>
    <rect class="cls-3" x="360.86" y="180.43" width="30.07" height="60.14"/>
    <rect class="cls-3" x="421.01" y="180.43" width="15.04" height="15.04"/>
    <rect class="cls-4" x="436.04" y="180.43" width="15.04" height="15.04"/>
    <rect class="cls-3" x="451.08" y="180.43" width="15.04" height="15.04"/>
    <rect class="cls-1" x="481.15" y="180.43" width="15.04" height="30.07"/>
    <rect class="cls-6" y="195.47" width="15.04" height="15.04"/>
    <rect class="cls-1" x="15.04" y="195.47" width="15.04" height="15.04"/>
    <rect class="cls-1" x="45.11" y="195.47" width="15.04" height="30.07"/>
    <rect class="cls-4" x="150.36" y="195.47" width="30.07" height="60.14"/>
    <rect class="cls-16" x="180.43" y="195.47" width="15.04" height="15.04"/>
    <rect class="cls-16" x="210.5" y="195.47" width="15.04" height="30.07"/>
    <rect class="cls-16" x="270.65" y="195.47" width="30.07" height="15.04"/>
    <rect class="cls-5" x="300.72" y="195.47" width="15.04" height="15.04"/>
    <rect class="cls-16" x="315.76" y="195.47" width="15.04" height="15.04"/>
    <rect class="cls-3" x="330.79" y="195.47" width="30.07" height="60.14"/>
    <rect class="cls-4" x="421.01" y="195.47" width="15.04" height="15.04"/>
    <rect class="cls-3" x="436.04" y="195.47" width="15.04" height="15.04"/>
    <rect class="cls-4" x="451.08" y="195.47" width="15.04" height="15.04"/>
    <rect class="cls-1" x="466.12" y="195.47" width="15.04" height="15.04"/>
    <rect class="cls-6" x="496.19" y="195.47" width="15.04" height="90.22"/>
    <rect class="cls-6" x="15.04" y="210.5" width="30.07" height="15.04"/>
    <rect class="cls-1" x="60.14" y="210.5" width="15.04" height="15.04"/>
    <rect class="cls-10" x="75.18" y="210.5" width="15.04" height="15.04"/>
    <rect class="cls-4" x="180.43" y="210.5" width="30.07" height="60.14"/>
    <rect class="cls-16" x="270.65" y="210.5" width="15.04" height="15.04"/>
    <rect class="cls-5" x="285.68" y="210.5" width="15.04" height="15.04"/>
    <rect class="cls-3" x="300.72" y="210.5" width="30.07" height="60.14"/>
    <rect class="cls-7" x="421.01" y="210.5" width="15.04" height="15.04"/>
    <rect class="cls-1" x="436.04" y="210.5" width="30.07" height="15.04"/>
    <rect class="cls-2" x="466.12" y="210.5" width="30.07" height="15.04"/>
    <rect class="cls-6" x="30.07" y="225.54" width="15.04" height="60.14"/>
    <rect class="cls-15" x="45.11" y="225.54" width="15.04" height="15.04"/>
    <rect class="cls-11" x="60.14" y="225.54" width="15.04" height="15.04"/>
    <rect class="cls-1" x="75.18" y="225.54" width="45.11" height="15.04"/>
    <rect class="cls-4" x="210.5" y="225.54" width="30.07" height="60.14"/>
    <rect class="cls-4" x="270.65" y="225.54" width="30.07" height="15.04"/>
    <rect class="cls-7" x="390.94" y="225.54" width="30.07" height="15.04"/>
    <rect class="cls-12" x="421.01" y="225.54" width="15.04" height="15.04"/>
    <rect class="cls-2" x="436.04" y="225.54" width="45.11" height="15.04"/>
    <rect class="cls-3" x="481.15" y="225.54" width="15.04" height="60.14"/>
    <rect class="cls-14" x="45.11" y="240.58" width="15.04" height="45.11"/>
    <rect class="cls-15" x="60.14" y="240.58" width="15.04" height="15.04"/>
    <rect class="cls-1" x="75.18" y="240.58" width="15.04" height="15.04"/>
    <rect class="cls-8" x="90.22" y="240.58" width="45.11" height="15.04"/>
    <rect class="cls-1" x="135.32" y="240.58" width="15.04" height="15.04"/>
    <rect class="cls-4" x="240.58" y="240.58" width="15.04" height="15.04"/>
    <rect class="cls-3" x="255.61" y="240.58" width="15.04" height="15.04"/>
    <rect class="cls-4" x="270.65" y="240.58" width="15.04" height="15.04"/>
    <rect class="cls-3" x="285.68" y="240.58" width="15.04" height="15.04"/>
    <rect class="cls-7" x="360.86" y="240.58" width="30.07" height="15.04"/>
    <rect class="cls-8" x="390.94" y="240.58" width="15.04" height="15.04"/>
    <rect class="cls-7" x="405.97" y="240.58" width="15.04" height="15.04"/>
    <rect class="cls-2" x="421.01" y="240.58" width="45.11" height="15.04"/>
    <rect class="cls-3" x="466.12" y="240.58" width="15.04" height="60.14"/>
    <rect class="cls-14" x="60.14" y="255.61" width="30.07" height="45.11"/>
    <rect class="cls-9" x="90.22" y="255.61" width="15.04" height="15.04"/>
    <rect class="cls-17" x="105.25" y="255.61" width="15.04" height="15.04"/>
    <rect class="cls-8" x="120.29" y="255.61" width="60.14" height="15.04"/>
    <rect class="cls-3" x="240.58" y="255.61" width="15.04" height="15.04"/>
    <rect class="cls-4" x="255.61" y="255.61" width="15.04" height="15.04"/>
    <rect class="cls-3" x="270.65" y="255.61" width="15.04" height="15.04"/>
    <rect class="cls-4" x="285.68" y="255.61" width="15.04" height="15.04"/>
    <rect class="cls-7" x="330.79" y="255.61" width="30.07" height="30.07"/>
    <rect class="cls-11" x="360.86" y="255.61" width="30.07" height="15.04"/>
    <rect class="cls-12" x="390.94" y="255.61" width="15.04" height="15.04"/>
    <rect class="cls-2" x="405.97" y="255.61" width="15.04" height="30.07"/>
    <rect class="cls-1" x="421.01" y="255.61" width="15.04" height="15.04"/>
    <rect class="cls-2" x="436.04" y="255.61" width="15.04" height="15.04"/>
    <rect class="cls-3" x="451.08" y="255.61" width="15.04" height="45.11"/>
    <rect class="cls-14" x="90.22" y="270.65" width="15.04" height="45.11"/>
    <rect class="cls-9" x="105.25" y="270.65" width="30.07" height="15.04"/>
    <rect class="cls-12" x="135.32" y="270.65" width="15.04" height="15.04"/>
    <rect class="cls-1" x="150.36" y="270.65" width="45.11" height="15.04"/>
    <rect class="cls-8" x="195.47" y="270.65" width="15.04" height="30.07"/>
    <rect class="cls-4" x="240.58" y="270.65" width="15.04" height="15.04"/>
    <rect class="cls-3" x="255.61" y="270.65" width="15.04" height="30.07"/>
    <rect class="cls-4" x="270.65" y="270.65" width="15.04" height="15.04"/>
    <rect class="cls-3" x="285.68" y="270.65" width="15.04" height="15.04"/>
    <rect class="cls-7" x="300.72" y="270.65" width="30.07" height="15.04"/>
    <rect class="cls-12" x="360.86" y="270.65" width="15.04" height="15.04"/>
    <rect class="cls-11" x="375.9" y="270.65" width="15.04" height="15.04"/>
    <rect class="cls-2" x="390.94" y="270.65" width="15.04" height="30.07"/>
    <rect class="cls-3" x="421.01" y="270.65" width="30.07" height="15.04"/>
    <rect class="cls-6" x="45.11" y="285.68" width="15.04" height="15.04"/>
    <rect class="cls-14" x="105.25" y="285.68" width="15.04" height="30.07"/>
    <rect class="cls-3" x="120.29" y="285.68" width="30.07" height="15.04"/>
    <rect class="cls-1" x="150.36" y="285.68" width="15.04" height="15.04"/>
    <rect class="cls-12" x="165.4" y="285.68" width="30.07" height="15.04"/>
    <rect class="cls-1" x="210.5" y="285.68" width="15.04" height="15.04"/>
    <rect class="cls-8" x="225.54" y="285.68" width="15.04" height="15.04"/>
    <rect class="cls-3" x="240.58" y="285.68" width="15.04" height="15.04"/>
    <rect class="cls-3" x="270.65" y="285.68" width="15.04" height="60.14"/>
    <rect class="cls-7" x="285.68" y="285.68" width="15.04" height="15.04"/>
    <rect class="cls-13" x="300.72" y="285.68" width="45.11" height="15.04"/>
    <rect class="cls-1" x="345.83" y="285.68" width="15.04" height="15.04"/>
    <rect class="cls-2" x="360.86" y="285.68" width="30.07" height="15.04"/>
    <rect class="cls-3" x="405.97" y="285.68" width="30.07" height="15.04"/>
    <rect class="cls-4" x="436.04" y="285.68" width="15.04" height="15.04"/>
    <rect class="cls-6" x="481.15" y="285.68" width="15.04" height="15.04"/>
    <rect class="cls-6" x="60.14" y="300.72" width="30.07" height="15.04"/>
    <rect class="cls-14" x="120.29" y="300.72" width="45.11" height="30.07"/>
    <rect class="cls-3" x="165.4" y="300.72" width="30.07" height="15.04"/>
    <rect class="cls-1" x="195.47" y="300.72" width="15.04" height="15.04"/>
    <rect class="cls-8" x="210.5" y="300.72" width="15.04" height="15.04"/>
    <rect class="cls-1" x="225.54" y="300.72" width="45.11" height="15.04"/>
    <rect class="cls-1" x="285.68" y="300.72" width="15.04" height="15.04"/>
    <rect class="cls-12" x="300.72" y="300.72" width="15.04" height="15.04"/>
    <rect class="cls-1" x="315.76" y="300.72" width="15.04" height="15.04"/>
    <rect class="cls-2" x="330.79" y="300.72" width="45.11" height="15.04"/>
    <rect class="cls-3" x="375.9" y="300.72" width="45.11" height="30.07"/>
    <rect class="cls-4" x="421.01" y="300.72" width="15.04" height="15.04"/>
    <rect class="cls-3" x="436.04" y="300.72" width="15.04" height="15.04"/>
    <rect class="cls-4" x="451.08" y="300.72" width="15.04" height="15.04"/>
    <rect class="cls-6" x="466.12" y="300.72" width="15.04" height="15.04"/>
    <rect class="cls-6" x="90.22" y="315.76" width="30.07" height="15.04"/>
    <rect class="cls-14" x="165.4" y="315.76" width="15.04" height="30.07"/>
    <rect class="cls-3" x="180.43" y="315.76" width="30.07" height="15.04"/>
    <rect class="cls-1" x="210.5" y="315.76" width="45.11" height="15.04"/>
    <rect class="cls-3" x="255.61" y="315.76" width="15.04" height="60.14"/>
    <rect class="cls-2" x="285.68" y="315.76" width="60.14" height="15.04"/>
    <rect class="cls-3" x="345.83" y="315.76" width="30.07" height="30.07"/>
    <rect class="cls-6" x="421.01" y="315.76" width="45.11" height="15.04"/>
    <rect class="cls-6" x="120.29" y="330.79" width="30.07" height="15.04"/>
    <rect class="cls-14" x="150.36" y="330.79" width="15.04" height="15.04"/>
    <rect class="cls-14" x="180.43" y="330.79" width="30.07" height="30.07"/>
    <rect class="cls-3" x="210.5" y="330.79" width="45.11" height="15.04"/>
    <rect class="cls-3" x="285.68" y="330.79" width="15.04" height="60.14"/>
    <rect class="cls-2" x="300.72" y="330.79" width="15.04" height="15.04"/>
    <rect class="cls-3" x="315.76" y="330.79" width="30.07" height="30.07"/>
    <rect class="cls-3" x="375.9" y="330.79" width="15.04" height="15.04"/>
    <rect class="cls-6" x="390.94" y="330.79" width="30.07" height="15.04"/>
    <rect class="cls-6" x="150.36" y="345.83" width="30.07" height="15.04"/>
    <rect class="cls-14" x="210.5" y="345.83" width="45.11" height="30.07"/>
    <rect class="cls-4" x="270.65" y="345.83" width="15.04" height="15.04"/>
    <rect class="cls-3" x="300.72" y="345.83" width="15.04" height="30.07"/>
    <rect class="cls-3" x="345.83" y="345.83" width="15.04" height="15.04"/>
    <rect class="cls-6" x="360.86" y="345.83" width="30.07" height="15.04"/>
    <rect class="cls-6" x="180.43" y="360.86" width="30.07" height="15.04"/>
    <rect class="cls-3" x="270.65" y="360.86" width="15.04" height="30.07"/>
    <rect class="cls-3" x="315.76" y="360.86" width="15.04" height="15.04"/>
    <rect class="cls-6" x="330.79" y="360.86" width="30.07" height="15.04"/>
    <rect class="cls-6" x="210.5" y="375.9" width="30.07" height="15.04"/>
    <rect class="cls-14" x="240.58" y="375.9" width="30.07" height="15.04"/>
    <rect class="cls-6" x="300.72" y="375.9" width="30.07" height="15.04"/>
    <rect class="cls-6" x="240.58" y="390.94" width="60.14" height="15.04"/>
  </g>
</svg>